REM DIRINDEX 1\2,1\3,1\4,1\5\6,1\5\7,1\8
REM DIRNAME folder01,folder02,folder03,folder04,folder05,folder06,folder07,folder08
TITLE ""
FILE "066 【066】Unit4 (0745 integral_0756 worsen).mp3" MP3
  TRACK 01 AUDIO
    TITLE "0:"
    INDEX 01 00:00:00
  TRACK 02 AUDIO
    TITLE "2:cjc115_2578"
    INDEX 01 00:00:07
  TRACK 03 AUDIO
    TITLE "0:"
    INDEX 01 00:01:28
  TRACK 04 AUDIO
    TITLE "3:cjc115_2579"
    INDEX 01 00:01:36
  TRACK 05 AUDIO
    TITLE "0:"
    INDEX 01 00:05:18
  TRACK 06 AUDIO
    TITLE "4:cjc115_2580"
    INDEX 01 00:05:24
  TRACK 07 AUDIO
    TITLE "0:"
    INDEX 01 00:08:62
  TRACK 08 AUDIO
    TITLE "2:cjc115_2581"
    INDEX 01 00:09:69
  TRACK 09 AUDIO
    TITLE "0:"
    INDEX 01 00:11:07
  TRACK 10 AUDIO
    TITLE "3:cjc115_2582"
    INDEX 01 00:11:17
  TRACK 11 AUDIO
    TITLE "0:"
    INDEX 01 00:13:22
  TRACK 12 AUDIO
    TITLE "4:cjc115_2583"
    INDEX 01 00:13:32
  TRACK 13 AUDIO
    TITLE "0:"
    INDEX 01 00:16:04
  TRACK 14 AUDIO
    TITLE "2:cjc115_2584"
    INDEX 01 00:17:08
  TRACK 15 AUDIO
    TITLE "0:"
    INDEX 01 00:18:42
  TRACK 16 AUDIO
    TITLE "3:cjc115_2585"
    INDEX 01 00:18:44
  TRACK 17 AUDIO
    TITLE "0:"
    INDEX 01 00:21:53
  TRACK 18 AUDIO
    TITLE "4:cjc115_2586"
    INDEX 01 00:21:58
  TRACK 19 AUDIO
    TITLE "0:"
    INDEX 01 00:26:01
  TRACK 20 AUDIO
    TITLE "2:cjc115_2587"
    INDEX 01 00:27:04
  TRACK 21 AUDIO
    TITLE "0:"
    INDEX 01 00:28:31
  TRACK 22 AUDIO
    TITLE "3:cjc115_2588"
    INDEX 01 00:28:39
  TRACK 23 AUDIO
    TITLE "0:"
    INDEX 01 00:30:61
  TRACK 24 AUDIO
    TITLE "4:cjc115_2589"
    INDEX 01 00:30:67
  TRACK 25 AUDIO
    TITLE "0:"
    INDEX 01 00:34:47
  TRACK 26 AUDIO
    TITLE "2:cjc115_2590"
    INDEX 01 00:35:55
  TRACK 27 AUDIO
    TITLE "0:"
    INDEX 01 00:37:08
  TRACK 28 AUDIO
    TITLE "3:cjc115_2591"
    INDEX 01 00:37:14
  TRACK 29 AUDIO
    TITLE "0:"
    INDEX 01 00:39:56
  TRACK 30 AUDIO
    TITLE "4:cjc115_2592"
    INDEX 01 00:39:60
  TRACK 31 AUDIO
    TITLE "0:"
    INDEX 01 00:43:68
  TRACK 32 AUDIO
    TITLE "2:cjc115_2593"
    INDEX 01 00:44:73
  TRACK 33 AUDIO
    TITLE "0:"
    INDEX 01 00:46:37
  TRACK 34 AUDIO
    TITLE "3:cjc115_2594"
    INDEX 01 00:46:47
  TRACK 35 AUDIO
    TITLE "0:"
    INDEX 01 00:49:23
  TRACK 36 AUDIO
    TITLE "4:cjc115_2595"
    INDEX 01 00:49:31
  TRACK 37 AUDIO
    TITLE "0:"
    INDEX 01 00:53:70
  TRACK 38 AUDIO
    TITLE "2:cjc115_2596"
    INDEX 01 00:55:04
  TRACK 39 AUDIO
    TITLE "0:"
    INDEX 01 00:56:10
  TRACK 40 AUDIO
    TITLE "3:cjc115_2597"
    INDEX 01 00:56:20
  TRACK 41 AUDIO
    TITLE "0:"
    INDEX 01 00:58:46
  TRACK 42 AUDIO
    TITLE "4:cjc115_2598"
    INDEX 01 00:58:54
  TRACK 43 AUDIO
    TITLE "0:"
    INDEX 01 01:01:70
  TRACK 44 AUDIO
    TITLE "2:cjc115_2599"
    INDEX 01 01:03:02
  TRACK 45 AUDIO
    TITLE "0:"
    INDEX 01 01:04:09
  TRACK 46 AUDIO
    TITLE "3:cjc115_2600"
    INDEX 01 01:04:15
  TRACK 47 AUDIO
    TITLE "0:"
    INDEX 01 01:06:32
  TRACK 48 AUDIO
    TITLE "4:cjc115_2601"
    INDEX 01 01:06:42
  TRACK 49 AUDIO
    TITLE "0:"
    INDEX 01 01:10:33
  TRACK 50 AUDIO
    TITLE "2:cjc115_2602"
    INDEX 01 01:11:41
  TRACK 51 AUDIO
    TITLE "0:"
    INDEX 01 01:12:58
  TRACK 52 AUDIO
    TITLE "3:cjc115_2603"
    INDEX 01 01:12:68
  TRACK 53 AUDIO
    TITLE "0:"
    INDEX 01 01:14:37
  TRACK 54 AUDIO
    TITLE "4:cjc115_2604"
    INDEX 01 01:14:45
  TRACK 55 AUDIO
    TITLE "0:"
    INDEX 01 01:18:37
  TRACK 56 AUDIO
    TITLE "2:cjc115_2605"
    INDEX 01 01:19:44
  TRACK 57 AUDIO
    TITLE "0:"
    INDEX 01 01:20:61
  TRACK 58 AUDIO
    TITLE "3:cjc115_2606"
    INDEX 01 01:20:71
  TRACK 59 AUDIO
    TITLE "0:"
    INDEX 01 01:23:63
  TRACK 60 AUDIO
    TITLE "4:cjc115_2607"
    INDEX 01 01:23:69
  TRACK 61 AUDIO
    TITLE "0:"
    INDEX 01 01:29:19
  TRACK 62 AUDIO
    TITLE "2:cjc115_2608"
    INDEX 01 01:30:24
  TRACK 63 AUDIO
    TITLE "0:"
    INDEX 01 01:31:39
  TRACK 64 AUDIO
    TITLE "3:cjc115_2609"
    INDEX 01 01:31:47
  TRACK 65 AUDIO
    TITLE "0:"
    INDEX 01 01:34:18
  TRACK 66 AUDIO
    TITLE "4:cjc115_2610"
    INDEX 01 01:34:24
  TRACK 67 AUDIO
    TITLE "0:"
    INDEX 01 01:39:41
  TRACK 68 AUDIO
    TITLE "2:cjc115_2611"
    INDEX 01 01:40:46
  TRACK 69 AUDIO
    TITLE "0:"
    INDEX 01 01:41:63
  TRACK 70 AUDIO
    TITLE "3:cjc115_2612"
    INDEX 01 01:41:71
  TRACK 71 AUDIO
    TITLE "0:"
    INDEX 01 01:43:19
  TRACK 72 AUDIO
    TITLE "4:cjc115_2613"
    INDEX 01 01:43:27
  TRACK 73 AUDIO
    TITLE "0:"
    INDEX 01 01:46:35
